<svg enable-background="new 0 0 512 512" height="512" viewBox="0 0 512 512" width="512" xmlns="http://www.w3.org/2000/svg"><g id="_x31_1_Seo_Consulting"><g><path d="m326.203 430.608v33.563c0 18.679-15.142 33.821-33.821 33.821h-211.043c-18.679 0-33.821-15.142-33.821-33.821v-33.563c0-76.957 62.386-139.343 139.343-139.343 76.956.001 139.342 62.386 139.342 139.343z" fill="#ffd764"/><path d="m326.227 430.595v33.57c0 18.69-15.189 33.827-33.827 33.827h-41.551c18.639 0 33.776-15.137 33.776-33.827v-33.57c0-38.461-15.601-73.267-40.778-98.496-20.595-20.595-47.575-34.754-77.746-39.285 6.745-1.029 13.696-1.545 20.749-1.545 38.461 0 73.318 15.601 98.547 40.83s40.83 60.034 40.83 98.496z" opacity=".15"/><path d="m176.147 334.536-10.937 84.252 21.65 19.868 21.65-19.868-10.936-84.252" fill="#ff6761"/><path d="m206.223 268.769v33.335c0 10.694-8.669 19.363-19.363 19.363-10.694 0-19.363-8.669-19.363-19.363v-33.335z" fill="#f4f4f4"/><ellipse cx="186.86" cy="170.619" fill="#ff6761" rx="81.111" ry="81.111" transform="matrix(.23 -.973 .973 .23 -22.126 313.281)"/><path d="m124.19 190.491v19.913c0 34.507 26.996 64.107 61.497 64.738 35.149.643 63.844-27.657 63.844-62.659v-37.024c0-15.17-13.223-26.995-28.293-25.252-25.152 2.91-47.012 17.399-69.694 14.979-14.713-1.571-27.354 10.508-27.354 25.305z" fill="#f4f4f4"/><path d="m464.187 31.391.29 77.354c.036 9.636-7.746 17.478-17.383 17.514l-77.586.291-33.736 36.726c-5.936 6.462-16.718 2.285-16.751-6.49l-.113-30.047-16.46.062c-9.636.036-17.478-7.746-17.514-17.383l-.29-77.354c-.036-9.636 7.746-17.478 17.383-17.514l144.645-.543c9.637-.035 17.478 7.747 17.515 17.384z" fill="#7bffcd"/><path d="m464.471 108.745c.052 9.628-7.723 17.454-17.351 17.506h-35.115c9.628-.052 17.403-7.878 17.352-17.506l-.309-77.334c0-8.959-6.745-16.322-15.446-17.249l33.055-.154c9.628-.052 17.506 7.723 17.506 17.403z" opacity=".15"/><g fill="#2b3c65"><path d="m134.745 503.141h17.246c2.843 0 5.149-2.305 5.149-5.149s-2.305-5.149-5.149-5.149h-17.246c-2.843 0-5.149 2.305-5.149 5.149s2.306 5.149 5.149 5.149z"/><path d="m148.369 302.075c2.723-.815 4.274-3.683 3.462-6.408-.817-2.725-3.681-4.276-6.408-3.462-60.675 18.103-103.049 75.011-103.049 138.39v33.57c0 21.49 17.485 38.975 38.978 38.975h32.695c2.843 0 5.149-2.305 5.149-5.149s-2.305-5.149-5.149-5.149h-3.937v-84.336c0-2.843-2.305-5.149-5.149-5.149-2.843 0-5.149 2.305-5.149 5.149v84.336h-18.46c-15.813 0-28.68-12.864-28.68-28.678v-33.57c-.001-58.86 39.352-111.71 95.697-128.519z"/><path d="m197.043 503.141h95.355c21.493 0 38.978-17.485 38.978-38.975v-33.57c0-38.56-15.036-74.833-42.339-102.138-16.96-16.96-37.972-29.497-60.77-36.255-2.725-.805-5.594.747-6.401 3.474-.807 2.725.747 5.591 3.474 6.401 21.156 6.27 40.665 17.91 56.415 33.661 25.357 25.359 39.322 59.047 39.322 94.857v33.57c0 15.813-12.867 28.678-28.68 28.678h-18.487v-84.336c0-2.843-2.305-5.149-5.149-5.149-2.843 0-5.149 2.305-5.149 5.149v84.336h-66.569c-2.843 0-5.149 2.305-5.149 5.149s2.306 5.148 5.149 5.148z"/><path d="m183.379 442.449c.986.903 2.232 1.355 3.482 1.355s2.496-.453 3.482-1.355l21.648-19.866c1.234-1.134 1.84-2.796 1.624-4.457l-10.936-84.253c-.367-2.818-2.944-4.827-5.77-4.442-2.818.367-4.809 2.949-4.442 5.77l10.592 81.603-16.198 14.863-16.201-14.863 10.592-81.603c.367-2.821-1.624-5.403-4.442-5.77-2.831-.38-5.405 1.624-5.77 4.442l-10.936 84.253c-.216 1.662.39 3.324 1.624 4.457z"/><path d="m162.342 302.082c0 13.543 10.994 24.56 24.507 24.56 13.516 0 24.509-11.017 24.509-24.56v-26.371c21.48-8.316 37.62-27.148 42.068-50.25 12.698-15.401 19.717-34.79 19.717-54.829 0-47.581-38.711-86.292-86.295-86.292-47.553 0-86.242 38.711-86.242 86.292 0 20.351 7.209 39.974 20.248 55.46 5.1 22.534 20.869 41.012 41.486 49.361v26.629zm38.718 0c0 7.864-6.376 14.262-14.212 14.262s-14.209-6.398-14.209-14.262v-23.357c4.194.934 8.521 1.484 12.955 1.565 4.99.088 10.084-.37 15.466-1.511zm-82.018-111.59v14.266c-5.281-10.501-8.138-22.162-8.138-34.124 0-41.904 34.068-75.995 75.944-75.995 41.904 0 75.997 34.09 75.997 75.995 0 11.955-2.873 23.632-8.166 34.153v-29.329c0-18.251-15.933-32.46-34.033-30.365-25.551 2.955-47.447 17.235-68.558 14.974-17.976-1.97-33.046 12.832-33.046 30.425zm10.298 19.911v-19.911c0-11.7 9.945-21.437 21.659-20.188 23.969 2.588 46.473-12.167 70.833-14.984 12.052-1.364 22.551 8.078 22.551 20.138v37.024c0 33.092-27.544 58.323-58.602 57.511-31.122-.568-56.441-27.3-56.441-59.59z"/><path d="m371.779 131.69 75.333-.284c12.513-.047 22.56-10.214 22.513-22.682l-.292-77.355v.003c-.045-12.432-10.174-22.513-22.596-22.513-.028 0-.058 0-.085 0l-144.643.543c-12.469.047-22.56 10.166-22.513 22.682l.289 77.355c.048 12.432 10.177 22.511 22.594 22.511h.088l11.313-.043.093 24.899c.05 13.481 16.616 19.836 25.689 9.953zm-47.608 25.076-.113-30.045c-.01-2.836-2.313-5.129-5.149-5.129-.005 0-.013 0-.02 0l-16.459.06c-7.642-.432-12.322-5.875-12.346-12.253l-.289-77.355c-.026-6.797 5.454-12.318 12.253-12.344l144.643-.543h.048c6.775 0 12.273 5.47 12.299 12.251v.003l.292 77.352c.026 6.784-5.44 12.32-12.253 12.346l-77.586.292c-1.433.005-2.801.608-3.771 1.667l-33.738 36.725c-2.767 3.006-7.797 1.074-7.811-3.027z"/><path d="m350.014 85.936c.052 8.805-7.105 15.961-15.858 16.013h-11.327c-2.832 0-5.149-2.265-5.149-5.097s2.265-5.149 5.097-5.2h11.327c3.089-.051 5.612-2.574 5.612-5.664 0-3.141-2.523-5.612-5.612-5.612h-.618c-8.804 0-15.91-7.105-15.961-15.858 0-8.805 7.054-15.961 15.91-16.013l11.276-.052h.051c2.832 0 5.149 2.317 5.149 5.149s-2.317 5.149-5.149 5.149l-11.327.052c-3.089 0-5.612 2.574-5.612 5.664.052 3.141 2.574 5.612 5.664 5.612h.567c8.649-.155 15.908 7.104 15.96 15.857z"/><path d="m374.313 101.781 11.444-.043c2.843-.01 5.139-2.325 5.129-5.169-.01-2.836-2.313-5.129-5.149-5.129-.005 0-.013 0-.02 0l-11.441.043c-.008 0-.015 0-.023 0-3.454 0-6.273-2.803-6.285-6.257l-.019-4.982 17.725-.066c2.843-.01 5.139-2.325 5.129-5.169-.01-2.836-2.313-5.129-5.149-5.129-.005 0-.013 0-.02 0l-17.723.066-.019-4.979c-.013-3.464 2.793-6.293 6.257-6.305l11.444-.043c2.843-.01 5.139-2.325 5.129-5.169-.01-2.836-2.313-5.129-5.149-5.129-.005 0-.013 0-.02 0l-11.441.043c-9.141.033-16.55 7.497-16.517 16.64l.075 20.261c.035 9.118 7.469 16.515 16.583 16.515.02.001.04.001.06.001z"/><path d="m415.076 101.628h.06c9.141-.031 16.549-7.455 16.517-16.64l-.075-20.261c-.035-9.121-7.467-16.515-16.575-16.515-.023 0-.043 0-.065 0-9.141.033-16.55 7.497-16.517 16.64l.078 20.258c.032 9.121 7.464 16.518 16.577 16.518zm-.098-43.119h.025c3.451 0 6.262 2.788 6.278 6.257l.075 20.258c.011 3.532-2.848 6.295-6.255 6.305-.008 0-.015 0-.023 0-3.454 0-6.27-2.801-6.283-6.257l-.078-20.258c-.009-3.492 2.806-6.295 6.261-6.305z"/></g></g></g></svg>