<svg id="Layer_1" viewBox="0 0 512 512" xmlns="http://www.w3.org/2000/svg" data-name="Layer 1"><path d="m454.032 297.169c-5.125-7.231-11.344-13.585-18.482-18.884-2.084-1.547-3.142-4.12-2.747-6.686l2.733-17.766c-3.929-2.146-7.992-4.041-12.151-5.668l-10.415 13.475c-1.701 2.202-4.549 3.183-7.244 2.509-9.46-2.378-19.164-3.089-28.848-2.107-2.683.266-5.288-1.025-6.688-3.333l-9.046-14.906c-2.083.493-4.146 1.047-6.173 1.657-2.024.61-4.05 1.289-6.058 2.03l.698 17.423c.108 2.696-1.344 5.215-3.73 6.473-8.615 4.54-16.312 10.495-22.875 17.7-1.874 2.058-4.788 2.809-7.424 1.915l-16.129-5.474c-2.566 3.655-4.905 7.48-6.993 11.44l12.097 13.295c1.746 1.92 2.287 4.647 1.406 7.089-3.022 8.366-4.692 17.098-4.966 25.952-.086 2.807-1.842 5.29-4.458 6.308l-15.752 6.127c.474 4.956 1.305 9.896 2.484 14.77l18.218 2.464c2.499.338 4.623 1.994 5.561 4.336 2.82 7.048 6.565 13.661 11.132 19.656 1.676 2.201 1.898 5.183.568 7.607l-8.226 14.995c3.915 3.967 8.143 7.618 12.635 10.912l15.591-9.855c2.123-1.342 4.802-1.443 7.02-.268 5.691 3.019 11.727 5.385 17.937 7.034 2.581.686 4.547 2.78 5.068 5.399l3.431 17.239c5.896.743 11.836.981 17.757.713l5.509-17.259c.781-2.448 2.841-4.271 5.366-4.75 2.949-.558 5.89-1.277 8.741-2.137 2.848-.857 5.696-1.884 8.469-3.051 2.369-.994 5.092-.614 7.096.993l14.129 11.337c5.084-3.05 9.905-6.533 14.404-10.407l-6.67-16.263c-1.013-2.471-.532-5.303 1.239-7.301 4.271-4.814 7.992-10.122 11.062-15.775 1.198-2.207 3.487-3.604 5.998-3.658l18.438-.404c1.924-5.231 3.43-10.61 4.5-16.076l-15.143-7.951c-2.449-1.285-3.911-3.893-3.731-6.652.491-7.528-.043-15.109-1.587-22.534-.514-2.469.342-5.023 2.237-6.687l13.819-12.123c-1.709-4.713-3.747-9.289-6.092-13.682l-16.513 3.6c-2.74.599-5.578-.5-7.202-2.792zm-54.109 97.398c-4.851 1.462-9.807 2.187-14.734 2.187-8.275 0-16.472-2.043-23.969-6.066-11.961-6.42-20.706-17.113-24.624-30.11s-2.54-26.741 3.879-38.702c6.42-11.96 17.114-20.705 30.11-24.624 12.995-3.918 26.741-2.542 38.703 3.879 11.961 6.42 20.706 17.112 24.624 30.109 8.088 26.83-7.159 55.238-33.989 63.328z" fill="#eb4b17"/><path d="m402.667 313.465c-5.431-2.914-11.37-4.395-17.364-4.395-3.571 0-7.161.524-10.677 1.585-9.417 2.839-17.164 9.175-21.815 17.841-4.651 8.665-5.649 18.624-2.811 28.04 2.839 9.417 9.175 17.165 17.841 21.816s18.626 5.647 28.041 2.811c19.439-5.86 30.486-26.443 24.626-45.883-2.839-9.417-9.175-17.164-17.841-21.815z" fill="#eb4b17"/><g fill="#1c5080"><path d="m39.022 410.696h260.401l4.921-8.973c-3.345-4.854-6.25-10.012-8.678-15.411l-18.902-2.557c-2.75-.372-5.021-2.334-5.789-5.002-2.571-8.941-4.095-18.14-4.527-27.339-.141-3.003 1.652-5.762 4.454-6.852l16.358-6.363c.576-7.315 1.973-14.536 4.172-21.559l-12.556-13.799c-1.908-2.098-2.362-5.139-1.151-7.702 3.717-7.863 8.293-15.323 13.603-22.173 1.829-2.359 4.957-3.297 7.781-2.34l16.745 5.683c5.872-5.868 12.438-10.939 19.596-15.138l-.725-18.086c-.117-2.917 1.588-5.6 4.278-6.732 3.9-1.642 7.913-3.088 11.927-4.298 4.016-1.21 8.159-2.223 12.314-3.011 2.874-.543 5.773.751 7.288 3.246l9.391 15.474c8.281-.458 16.556.138 24.698 1.784l9.058-11.718v-95.861h-390.679v252.703c0 8.835 7.188 16.022 16.021 16.022zm37.131-53.198h-9.83c-3.866 0-7-3.134-7-7s3.134-7 7-7h9.83c3.866 0 7 3.134 7 7s-3.134 7-7 7zm1.031-58.71h-10.861c-3.866 0-7-3.134-7-7s3.134-7 7-7h10.861c3.866 0 7 3.134 7 7s-3.134 7-7 7zm151.748-102.74h110.598c3.866 0 7 3.134 7 7s-3.134 7-7 7h-110.598c-3.866 0-7-3.134-7-7s3.134-7 7-7zm-77.566-.155c-2.734-2.734-2.734-7.166 0-9.899 2.733-2.733 7.167-2.732 9.898 0l20.604 20.605c2.734 2.734 2.734 7.166 0 9.899l-20.604 20.605c-1.366 1.367-3.158 2.05-4.949 2.05s-3.583-.684-4.949-2.05c-2.734-2.733-2.734-7.166 0-9.899l15.654-15.655-15.654-15.655zm-44.481 52.347 15.765-76.219c.782-3.786 4.484-6.22 8.272-5.437 3.785.783 6.22 4.487 5.437 8.273l-15.765 76.219c-.684 3.308-3.598 5.583-6.848 5.583-.47 0-.946-.047-1.425-.146-3.785-.783-6.22-4.486-5.437-8.272zm-2.7 36.549h142.255c3.866 0 7 3.134 7 7s-3.134 7-7 7h-142.256c-3.866 0-7-3.134-7-7s3.134-7 7-7zm0 58.71h128.747c3.866 0 7 3.134 7 7s-3.134 7-7 7h-128.748c-3.866 0-7-3.134-7-7s3.134-7 7-7zm-42.812-136.901 20.605-20.605c2.734-2.733 7.168-2.732 9.898 0 2.734 2.734 2.734 7.166 0 9.899l-15.655 15.655 15.655 15.655c2.734 2.733 2.734 7.166 0 9.899-1.366 1.367-3.158 2.05-4.949 2.05s-3.583-.684-4.949-2.05l-20.605-20.605c-1.313-1.312-2.051-3.093-2.051-4.95s.737-3.637 2.051-4.95z"/><path d="m413.679 77.173c0-8.834-7.188-16.021-16.021-16.021h-358.636c-8.834 0-16.021 7.187-16.021 16.021v50.797h390.678zm-356.658 24.388h-.631c-3.866 0-7-3.134-7-7s3.134-7 7-7h.631c3.866 0 7 3.134 7 7s-3.134 7-7 7zm44.578 0h-.631c-3.866 0-7-3.134-7-7s3.134-7 7-7h.631c3.866 0 7 3.134 7 7s-3.134 7-7 7zm44.578 0h-.631c-3.866 0-7-3.134-7-7s3.134-7 7-7h.631c3.866 0 7 3.134 7 7s-3.134 7-7 7z"/></g></svg>