<svg version="1.1" id="Capa_1" xmlns="http://www.w3.org/2000/svg" xmlns:xlink="http://www.w3.org/1999/xlink" x="0px" y="0px" viewBox="0 0 512 512" style="enable-background:new 0 0 512 512;" xml:space="preserve">
<g>
	<g>
		<g>
			<path style="fill:#F5B6E6;" d="M494.661,213.195h-3.27c-4.289,0-8.027-2.796-9.377-6.867c-1.938-5.843-4.292-11.495-7.025-16.926&#10;&#9;&#9;&#9;&#9;c-1.931-3.837-1.269-8.465,1.768-11.503l2.322-2.322c3.842-3.842,3.842-10.072,0-13.914l-32.709-32.709&#10;&#9;&#9;&#9;&#9;c-3.842-3.842-10.072-3.842-13.914,0l-2.322,2.322c-3.037,3.037-7.666,3.699-11.502,1.769&#10;&#9;&#9;&#9;&#9;c-5.431-2.732-11.083-5.086-16.926-7.025c-4.07-1.35-6.867-5.088-6.867-9.377v-3.27c0-5.434-4.405-9.839-9.839-9.839h-46.257&#10;&#9;&#9;&#9;&#9;c-5.434,0-9.839,4.405-9.839,9.839v3.27c0,4.288-2.796,8.026-6.867,9.377c-5.843,1.938-11.495,4.292-16.926,7.025&#10;&#9;&#9;&#9;&#9;c-3.837,1.931-8.466,1.269-11.503-1.769l-2.322-2.322c-3.842-3.842-10.072-3.842-13.914,0l-32.709,32.709&#10;&#9;&#9;&#9;&#9;c-3.842,3.842-3.842,10.072,0,13.914l2.322,2.322c3.037,3.037,3.699,7.666,1.768,11.503c-2.732,5.43-5.086,11.083-7.025,16.926&#10;&#9;&#9;&#9;&#9;c-1.35,4.07-5.088,6.867-9.377,6.867h-3.27c-5.434,0-9.839,4.405-9.839,9.839v46.257c0,5.434,4.405,9.839,9.839,9.839h3.27&#10;&#9;&#9;&#9;&#9;c4.289,0,8.027,2.796,9.377,6.867c1.938,5.843,4.292,11.495,7.025,16.926c1.931,3.837,1.269,8.465-1.768,11.503l-2.322,2.322&#10;&#9;&#9;&#9;&#9;c-3.842,3.842-3.842,10.072,0,13.914l32.709,32.709c3.842,3.842,10.072,3.842,13.914,0l2.322-2.322&#10;&#9;&#9;&#9;&#9;c3.037-3.037,7.666-3.699,11.503-1.768c5.43,2.732,11.083,5.086,16.926,7.024c4.07,1.35,6.867,5.088,6.867,9.377v3.27&#10;&#9;&#9;&#9;&#9;c0,5.434,4.405,9.839,9.839,9.839h46.257c5.434,0,9.839-4.405,9.839-9.839v-3.27c0-4.288,2.796-8.026,6.867-9.377&#10;&#9;&#9;&#9;&#9;c5.843-1.938,11.495-4.292,16.926-7.025c3.837-1.931,8.466-1.269,11.503,1.768l2.322,2.322c3.842,3.842,10.072,3.842,13.914,0&#10;&#9;&#9;&#9;&#9;l32.709-32.709c3.842-3.842,3.842-10.072,0-13.914l-2.322-2.322c-3.037-3.037-3.699-7.666-1.768-11.503&#10;&#9;&#9;&#9;&#9;c2.732-5.43,5.086-11.083,7.025-16.926c1.35-4.07,5.088-6.867,9.377-6.867h3.27c5.434,0,9.839-4.405,9.839-9.839v-46.257&#10;&#9;&#9;&#9;&#9;C504.5,217.6,500.095,213.195,494.661,213.195z M361.873,305.259c-32.638,0-59.097-26.459-59.097-59.097&#10;&#9;&#9;&#9;&#9;c0-32.638,26.458-59.097,59.097-59.097c32.638,0,59.097,26.459,59.097,59.097C420.969,278.801,394.511,305.259,361.873,305.259z"/>
		</g>
		<path style="fill:#F29CDA;" d="M494.661,213.195h-3.27c-4.289,0-8.027-2.796-9.377-6.867c-1.938-5.843-4.292-11.495-7.025-16.926&#10;&#9;&#9;&#9;c-1.931-3.837-1.269-8.465,1.768-11.503l2.322-2.322c3.843-3.842,3.843-10.072,0-13.914l-32.709-32.709&#10;&#9;&#9;&#9;c-3.842-3.842-10.072-3.842-13.914,0l-2.322,2.322c-0.666,0.666-1.412,1.211-2.207,1.646&#10;&#9;&#9;&#9;c17.504,25.325,27.766,56.039,27.766,89.155c0,76.374-54.537,140-126.79,154.086v2.787c0,5.434,4.405,9.839,9.839,9.839h46.257&#10;&#9;&#9;&#9;c5.434,0,9.839-4.405,9.839-9.839v-3.27c0-4.288,2.796-8.026,6.867-9.377c5.843-1.938,11.495-4.292,16.926-7.025&#10;&#9;&#9;&#9;c3.837-1.931,8.465-1.269,11.502,1.769l2.322,2.322c3.842,3.843,10.072,3.843,13.914,0l32.709-32.709&#10;&#9;&#9;&#9;c3.843-3.842,3.843-10.072,0-13.914l-2.322-2.322c-3.037-3.037-3.699-7.666-1.768-11.503c2.732-5.43,5.086-11.083,7.025-16.926&#10;&#9;&#9;&#9;c1.35-4.07,5.088-6.867,9.377-6.867h3.27c5.434,0,9.839-4.405,9.839-9.839v-46.257C504.5,217.6,500.095,213.195,494.661,213.195z"/>
		<g>
			<polygon style="fill:#7EBFFF;" points="41.929,260.109 87.785,305.965 188.64,218.266 304.849,88.901 258.993,43.045 &#9;&#9;&#9;"/>
		</g>
		<g>
			<g>
				
					<rect x="65.757" y="187.936" transform="matrix(0.7071 -0.7071 0.7071 0.7071 -91.6032 219.5716)" style="fill:#F68157;" width="306.975" height="64.85"/>
			</g>
			<polygon style="fill:#FD6930;" points="330.704,114.756 113.641,331.819 87.786,305.964 87.785,305.965 133.641,351.821 &#10;&#9;&#9;&#9;&#9;350.705,134.757 &#9;&#9;&#9;"/>
		</g>
		<g>
			<g>
				
					<rect x="225.281" y="82.804" transform="matrix(-0.7071 -0.7071 0.7071 -0.7071 422.014 382.0421)" style="fill:#EEF7FF;" width="129.7" height="41.629"/>
			</g>
			
				<rect x="305.172" y="125.332" transform="matrix(0.7071 -0.7071 0.7071 0.7071 -3.1441 271.3584)" style="fill:#E0EEFF;" width="41.629" height="28.285"/>
		</g>
		<g>
			<g>
				<path style="fill:#867F8B;" d="M352.981,40.498l0.27,0.27c25.251,25.251,25.251,66.19,0,91.441l-2.547,2.547l-91.712-91.712&#10;&#9;&#9;&#9;&#9;&#9;l2.547-2.547C286.791,15.247,327.731,15.247,352.981,40.498z"/>
			</g>
			<path style="fill:#736E78;" d="M353.252,40.768l-0.27-0.27c-3.388-3.388-7.065-6.306-10.942-8.784&#10;&#9;&#9;&#9;&#9;c15.993,25.018,13.074,58.633-8.787,80.495l-2.547,2.547l19.999,20.001l2.547-2.547&#10;&#9;&#9;&#9;&#9;C378.503,106.959,378.503,66.019,353.252,40.768z"/>
		</g>
		<g>
			<g>
				<path style="fill:#F3DED1;" d="M27.731,385.496l105.909-33.676l-91.712-91.712L8.253,366.018&#10;&#9;&#9;&#9;&#9;&#9;C4.441,378.008,15.741,389.309,27.731,385.496z"/>
			</g>
			<path style="fill:#EBC7B6;" d="M113.64,331.82L8.497,365.252l-0.244,0.767c-3.812,11.99,7.488,23.291,19.478,19.478&#10;&#9;&#9;&#9;&#9;l105.909-33.676L113.64,331.82z"/>
		</g>
		<g>
			<path style="fill:#FD6930;" d="M17.671,336.401l-9.417,29.617c-3.812,11.99,7.488,23.29,19.478,19.478l29.617-9.417&#10;&#9;&#9;&#9;&#9;L17.671,336.401z"/>
		</g>
		<g>
			<path style="fill:#968E9C;" d="M267.141,490.361h-24.593c-17.425,0-31.551-14.126-31.551-31.551v-3.38h87.695v3.38&#10;&#9;&#9;&#9;&#9;C298.692,476.235,284.566,490.361,267.141,490.361z"/>
		</g>
		<g>
			<path style="fill:#F9D75A;" d="M179.803,366.494c12.274,11.419,20.747,28.289,24.659,44.301h100.741&#10;&#9;&#9;&#9;&#9;c3.859-15.942,12.217-32.769,24.447-44.081c21.762-20.129,35.387-48.927,35.387-80.909c0-61.135-49.786-110.643-111.027-110.189&#10;&#9;&#9;&#9;&#9;c-60.588,0.449-109.773,50.376-109.355,110.965C144.873,318.135,158.355,346.539,179.803,366.494z"/>
		</g>
		<g>
			<path style="fill:#54AFFF;" d="M299.13,455.43h-88.571c-5.33,0-9.65-4.321-9.65-9.65v-25.324c0-5.332,4.316-9.653,9.647-9.65&#10;&#9;&#9;&#9;&#9;c20.481,0.011,68.105,0.013,88.582,0.013c5.33,0,9.642,4.321,9.642,9.65v25.31C308.781,451.11,304.46,455.43,299.13,455.43z"/>
		</g>
		<g>
			<path style="fill:#867F8B;" d="M268.692,455.43v3.38c0,16.514-12.689,30.055-28.848,31.428c0.892,0.076,1.792,0.123,2.703,0.123&#10;&#9;&#9;&#9;&#9;h24.594c17.425,0,31.551-14.126,31.551-31.551v-3.38H268.692z"/>
		</g>
		<g>
			<path style="fill:#F8CB3C;" d="M254.01,175.615c-4.796,0.036-9.519,0.383-14.153,1.019c53.755,7.324,95.18,53.405,95.18,109.17&#10;&#9;&#9;&#9;&#9;c0,31.981-13.625,60.78-35.387,80.909c-12.23,11.312-20.589,28.139-24.448,44.082h30c3.859-15.942,12.217-32.769,24.448-44.082&#10;&#9;&#9;&#9;&#9;c21.762-20.129,35.387-48.927,35.387-80.909C365.037,224.669,315.251,175.162,254.01,175.615z"/>
		</g>
		<g>
			<path style="fill:#429CFF;" d="M299.138,410.819c-20.477,0-68.101-0.003-88.582-0.013c-0.057,0-0.113,0.007-0.169,0.008&#10;&#9;&#9;&#9;&#9;c21.186,0.004,45.581,0.005,58.751,0.005c5.33,0,9.642,4.321,9.642,9.65v25.31c0,5.33-4.321,9.65-9.65,9.65h30&#10;&#9;&#9;&#9;&#9;c5.33,0,9.65-4.321,9.65-9.65v-25.31C308.781,415.14,304.468,410.819,299.138,410.819z"/>
		</g>
		<g>
			<path style="fill:#EEF7FF;" d="M261.552,268.736l7.505,15.851c1.082,2.285,3.252,3.862,5.759,4.184l17.394,2.24&#10;&#9;&#9;&#9;&#9;c6.211,0.8,8.7,8.46,4.145,12.757L283.6,315.804c-1.839,1.735-2.668,4.286-2.2,6.771l3.245,17.235&#10;&#9;&#9;&#9;&#9;c1.159,6.155-5.357,10.888-10.852,7.885l-15.389-8.412c-2.218-1.213-4.901-1.213-7.119,0l-15.389,8.412&#10;&#9;&#9;&#9;&#9;c-5.495,3.004-12.011-1.73-10.852-7.885l3.245-17.235c0.468-2.484-0.361-5.036-2.2-6.771l-12.756-12.036&#10;&#9;&#9;&#9;&#9;c-4.555-4.298-2.066-11.958,4.145-12.757l17.394-2.24c2.507-0.323,4.678-1.9,5.759-4.184l7.505-15.851&#10;&#9;&#9;&#9;&#9;C250.818,263.076,258.872,263.076,261.552,268.736z"/>
		</g>
	</g>
	<g>
		<path style="fill:none;stroke:#000000;stroke-width:15;stroke-linecap:round;stroke-linejoin:round;stroke-miterlimit:10;" d="&#10;&#9;&#9;&#9;M354.776,388.79h30.225c5.434,0,9.839-4.405,9.839-9.839v-3.27c0-4.288,2.796-8.026,6.867-9.377&#10;&#9;&#9;&#9;c5.843-1.938,11.495-4.292,16.926-7.025c3.837-1.931,8.466-1.269,11.503,1.768l2.322,2.322c3.842,3.842,10.072,3.842,13.914,0&#10;&#9;&#9;&#9;l32.709-32.709c3.842-3.842,3.842-10.072,0-13.914l-2.322-2.322c-3.037-3.037-3.699-7.666-1.768-11.503&#10;&#9;&#9;&#9;c2.732-5.43,5.086-11.083,7.024-16.926c1.35-4.07,5.088-6.867,9.377-6.867h3.27c5.434,0,9.839-4.405,9.839-9.839v-46.257&#10;&#9;&#9;&#9;c0-5.434-4.405-9.839-9.839-9.839h-3.27c-4.289,0-8.027-2.796-9.377-6.867c-1.938-5.843-4.292-11.495-7.024-16.926&#10;&#9;&#9;&#9;c-1.931-3.837-1.269-8.465,1.768-11.503l2.322-2.322c3.842-3.842,3.842-10.072,0-13.914l-32.709-32.709&#10;&#9;&#9;&#9;c-3.842-3.842-10.072-3.842-13.914,0l-2.322,2.322c-3.037,3.037-7.666,3.699-11.502,1.769c-5.431-2.732-11.083-5.086-16.926-7.025&#10;&#9;&#9;&#9;c-4.07-1.35-6.867-5.088-6.867-9.377v-3.27c0-5.434-4.405-9.839-9.839-9.839h-11.043 M328.253,197.554&#10;&#9;&#9;&#9;c9.544-6.613,21.129-10.488,33.62-10.488c32.638,0,59.097,26.459,59.097,59.097c0,31.601-24.803,57.408-56.004,59.017"/>
		
			<line style="fill:none;stroke:#000000;stroke-width:15;stroke-linecap:round;stroke-linejoin:round;stroke-miterlimit:10;" x1="75.91" y1="75.452" x2="75.91" y2="102.349"/>
		
			<line style="fill:none;stroke:#000000;stroke-width:15;stroke-linecap:round;stroke-linejoin:round;stroke-miterlimit:10;" x1="89.358" y1="88.901" x2="62.461" y2="88.901"/>
		
			<line style="fill:none;stroke:#000000;stroke-width:15;stroke-linecap:round;stroke-linejoin:round;stroke-miterlimit:10;" x1="408.552" y1="427.568" x2="408.552" y2="454.465"/>
		
			<line style="fill:none;stroke:#000000;stroke-width:15;stroke-linecap:round;stroke-linejoin:round;stroke-miterlimit:10;" x1="422" y1="441.017" x2="395.103" y2="441.017"/>
		
			<line style="fill:none;stroke:#000000;stroke-width:15;stroke-linecap:round;stroke-linejoin:round;stroke-miterlimit:10;" x1="446.376" y1="40.193" x2="446.376" y2="67.09"/>
		
			<line style="fill:none;stroke:#000000;stroke-width:15;stroke-linecap:round;stroke-linejoin:round;stroke-miterlimit:10;" x1="459.824" y1="53.642" x2="432.928" y2="53.642"/>
		
			<polyline style="fill:none;stroke:#000000;stroke-width:15;stroke-linecap:round;stroke-linejoin:round;stroke-miterlimit:10;" points="&#10;&#9;&#9;&#9;98.815,203.223 258.993,43.045 350.705,134.757 301.814,183.647 &#9;&#9;"/>
		
			<polyline style="fill:none;stroke:#000000;stroke-width:15;stroke-linecap:round;stroke-linejoin:round;stroke-miterlimit:10;" points="&#10;&#9;&#9;&#9;151.216,334.246 133.641,351.821 41.929,260.109 72.801,229.237 &#9;&#9;"/>
		
			<rect x="225.281" y="82.804" transform="matrix(-0.7071 -0.7071 0.7071 -0.7071 422.0139 382.0421)" style="fill:none;stroke:#000000;stroke-width:15;stroke-linecap:round;stroke-linejoin:round;stroke-miterlimit:10;" width="129.7" height="41.629"/>
		<path style="fill:none;stroke:#000000;stroke-width:15;stroke-linecap:round;stroke-linejoin:round;stroke-miterlimit:10;" d="&#10;&#9;&#9;&#9;M258.993,43.045l2.412-2.412c25.325-25.325,66.386-25.325,91.711,0l0,0c25.325,25.325,25.325,66.386,0,91.711l-2.412,2.412"/>
		<path style="fill:none;stroke:#000000;stroke-width:15;stroke-linecap:round;stroke-linejoin:round;stroke-miterlimit:10;" d="&#10;&#9;&#9;&#9;M27.731,385.496l105.909-33.676l-91.712-91.712L8.253,366.018C4.441,378.008,15.741,389.309,27.731,385.496z"/>
		
			<line style="fill:none;stroke:#000000;stroke-width:15;stroke-linecap:round;stroke-linejoin:round;stroke-miterlimit:10;" x1="207.959" y1="185.791" x2="273.5" y2="120.25"/>
		
			<line style="fill:none;stroke:#000000;stroke-width:15;stroke-linecap:round;stroke-linejoin:round;stroke-miterlimit:10;" x1="87.785" y1="305.965" x2="154.399" y2="239.35"/>
		
			<line style="fill:none;stroke:#000000;stroke-width:15;stroke-linecap:round;stroke-linejoin:round;stroke-miterlimit:10;" x1="57.348" y1="376.079" x2="17.671" y2="336.401"/>
		<path style="fill:none;stroke:#000000;stroke-width:15;stroke-linecap:round;stroke-linejoin:round;stroke-miterlimit:10;" d="&#10;&#9;&#9;&#9;M305.804,408.439c4.088-15.227,12.217-30.969,23.846-41.726c21.762-20.129,35.387-48.927,35.387-80.909&#10;&#9;&#9;&#9;c0-61.135-49.786-110.643-111.027-110.189c-60.588,0.449-109.773,50.376-109.355,110.965&#10;&#9;&#9;&#9;c0.218,31.556,13.699,59.959,35.148,79.914c11.821,10.998,20.117,27.051,24.207,42.524"/>
		<path style="fill:none;stroke:#000000;stroke-width:15;stroke-linecap:round;stroke-linejoin:round;stroke-miterlimit:10;" d="&#10;&#9;&#9;&#9;M299.13,455.43h-88.571c-5.33,0-9.65-4.321-9.65-9.65v-25.324c0-5.332,4.316-9.653,9.647-9.65&#10;&#9;&#9;&#9;c20.481,0.011,68.105,0.013,88.582,0.013c5.33,0,9.642,4.321,9.642,9.65v25.31C308.78,451.11,304.46,455.43,299.13,455.43z"/>
		
			<line style="fill:none;stroke:#000000;stroke-width:15;stroke-linecap:round;stroke-linejoin:round;stroke-miterlimit:10;" x1="254.845" y1="214.919" x2="254.845" y2="229.237"/>
		
			<line style="fill:none;stroke:#000000;stroke-width:15;stroke-linecap:round;stroke-linejoin:round;stroke-miterlimit:10;" x1="308.78" y1="238.878" x2="299.614" y2="249.876"/>
		
			<line style="fill:none;stroke:#000000;stroke-width:15;stroke-linecap:round;stroke-linejoin:round;stroke-miterlimit:10;" x1="200.909" y1="238.878" x2="210.076" y2="249.876"/>
		<path style="fill:none;stroke:#000000;stroke-width:15;stroke-linecap:round;stroke-linejoin:round;stroke-miterlimit:10;" d="&#10;&#9;&#9;&#9;M261.552,268.736l7.505,15.851c1.082,2.285,3.252,3.862,5.759,4.184l17.394,2.24c6.211,0.8,8.7,8.46,4.145,12.757L283.6,315.804&#10;&#9;&#9;&#9;c-1.839,1.735-2.668,4.286-2.2,6.771l3.245,17.235c1.159,6.155-5.357,10.888-10.852,7.885l-15.389-8.412&#10;&#9;&#9;&#9;c-2.218-1.213-4.901-1.213-7.119,0l-15.389,8.412c-5.495,3.004-12.011-1.73-10.852-7.885l3.245-17.235&#10;&#9;&#9;&#9;c0.468-2.484-0.361-5.036-2.2-6.771l-12.756-12.036c-4.555-4.298-2.066-11.958,4.145-12.757l17.394-2.24&#10;&#9;&#9;&#9;c2.507-0.323,4.678-1.9,5.759-4.184l7.505-15.851C250.818,263.076,258.872,263.076,261.552,268.736z"/>
		<path style="fill:none;stroke:#000000;stroke-width:15;stroke-linecap:round;stroke-linejoin:round;stroke-miterlimit:10;" d="&#10;&#9;&#9;&#9;M267.141,490.361h-24.593c-17.425,0-31.551-14.126-31.551-31.551v-3.38h87.695v3.38&#10;&#9;&#9;&#9;C298.692,476.235,284.566,490.361,267.141,490.361z"/>
	</g>
</g>
<g>
</g>
<g>
</g>
<g>
</g>
<g>
</g>
<g>
</g>
<g>
</g>
<g>
</g>
<g>
</g>
<g>
</g>
<g>
</g>
<g>
</g>
<g>
</g>
<g>
</g>
<g>
</g>
<g>
</g>
</svg>